<svg xmlns="http://www.w3.org/2000/svg" xmlns:xlink="http://www.w3.org/1999/xlink" width="230" height="230" viewBox="0 0 230 230">
  <defs>
    <filter id="Path_65" x="0" y="0" width="230" height="230" filterUnits="userSpaceOnUse">
      <feOffset input="SourceAlpha"/>
      <feGaussianBlur stdDeviation="10" result="blur"/>
      <feFlood flood-color="#aaa" flood-opacity="0.161"/>
      <feComposite operator="in" in2="blur"/>
      <feComposite in="SourceGraphic"/>
    </filter>
    <filter id="Path_66" x="20.001" y="20" width="190" height="190" filterUnits="userSpaceOnUse">
      <feOffset input="SourceAlpha"/>
      <feGaussianBlur stdDeviation="10" result="blur-2"/>
      <feFlood flood-color="#aaa" flood-opacity="0.161"/>
      <feComposite operator="in" in2="blur-2"/>
      <feComposite in="SourceGraphic"/>
    </filter>
    <linearGradient id="linear-gradient" x1="0.835" y1="0.123" x2="0.17" y2="0.94" gradientUnits="objectBoundingBox">
      <stop offset="0" stop-color="#2cbfc7"/>
      <stop offset="1" stop-color="#46eeaa"/>
    </linearGradient>
  </defs>
  <g id="skill-item-4" transform="translate(-935 -2404)">
    <g transform="matrix(1, 0, 0, 1, 935, 2404)" filter="url(#Path_65)">
      <path id="Path_65-2" data-name="Path 65" d="M0,0A74.85,74.85,0,0,1-60.8-31.1,74.563,74.563,0,0,1-75-75,75,75,0,0,1,0-150,75,75,0,0,1,75-75,75,75,0,0,1,0,0M0-160A85.006,85.006,0,0,0-85-75,84.519,84.519,0,0,0-68.91-25.25,84.864,84.864,0,0,0,0,10,85,85,0,0,0,85-75,85,85,0,0,0,0-160" transform="translate(115 190)" fill="#fff"/>
    </g>
    <g transform="matrix(1, 0, 0, 1, 935, 2404)" filter="url(#Path_66)">
      <path id="Path_66-2" data-name="Path 66" d="M0,0A65,65,0,0,1-65,65a64.883,64.883,0,0,1-52.7-26.95A64.664,64.664,0,0,1-130,0,65,65,0,0,1-65-65,65,65,0,0,1,0,0" transform="translate(180 115)" fill="#fff"/>
    </g>
    <g id="Group_45" data-name="Group 45" transform="translate(1050 2444)">
      <path id="Path_67" data-name="Path 67" d="M0,0A5,5,0,0,0-5,5a5,5,0,0,0,5,5H0A65,65,0,0,1,65,75,65,65,0,0,1,0,140a64.883,64.883,0,0,1-52.7-26.95l-.009.006A4.976,4.976,0,0,0-56.73,111a5,5,0,0,0-5,5,4.963,4.963,0,0,0,.936,2.9l-.005,0A74.85,74.85,0,0,0,0,150,75,75,0,0,0,75,75,75,75,0,0,0,0,0" fill="url(#linear-gradient)"/>
    </g>
    <text id="_60_" data-name="60%" transform="translate(1052.001 2532)" fill="#5d5d5d" font-size="34" font-family="SegoeUI-Bold, Segoe UI" font-weight="700"><tspan x="-34.299" y="0">60%</tspan></text>
  </g>
</svg>
