<svg xmlns="http://www.w3.org/2000/svg" xmlns:xlink="http://www.w3.org/1999/xlink" width="230" height="230" viewBox="0 0 230 230">
  <defs>
    <filter id="Path_57" x="0" y="0" width="230" height="230" filterUnits="userSpaceOnUse">
      <feOffset input="SourceAlpha"/>
      <feGaussianBlur stdDeviation="10" result="blur"/>
      <feFlood flood-color="#aaa" flood-opacity="0.161"/>
      <feComposite operator="in" in2="blur"/>
      <feComposite in="SourceGraphic"/>
    </filter>
    <filter id="Path_58" x="20" y="20" width="190" height="190" filterUnits="userSpaceOnUse">
      <feOffset input="SourceAlpha"/>
      <feGaussianBlur stdDeviation="10" result="blur-2"/>
      <feFlood flood-color="#aaa" flood-opacity="0.161"/>
      <feComposite operator="in" in2="blur-2"/>
      <feComposite in="SourceGraphic"/>
    </filter>
    <linearGradient id="linear-gradient" x1="0.823" y1="0.103" x2="0.213" y2="0.913" gradientUnits="objectBoundingBox">
      <stop offset="0" stop-color="#f5317f"/>
      <stop offset="1" stop-color="#ff7c6e"/>
    </linearGradient>
  </defs>
  <g id="skill-item-1" transform="translate(-185 -2404)">
    <g transform="matrix(1, 0, 0, 1, 185, 2404)" filter="url(#Path_57)">
      <path id="Path_57-2" data-name="Path 57" d="M0,0A75,75,0,0,1-75-75,75,75,0,0,1,0-150,75,75,0,0,1,75-75,75,75,0,0,1,0,0M0-160A85.006,85.006,0,0,0-85-75,85.006,85.006,0,0,0,0,10,85,85,0,0,0,85-75,85,85,0,0,0,0-160" transform="translate(115 190)" fill="#fff"/>
    </g>
    <g transform="matrix(1, 0, 0, 1, 185, 2404)" filter="url(#Path_58)">
      <path id="Path_58-2" data-name="Path 58" d="M0,0A65,65,0,0,1-65,65,65,65,0,0,1-130,0,65,65,0,0,1-65-65,65,65,0,0,1,0,0" transform="translate(180 115)" fill="#fff"/>
    </g>
    <path id="Path_59" data-name="Path 59" d="M0,0A5,5,0,0,0,0,10,65,65,0,0,1,0,140,65,65,0,0,1-65,75a5,5,0,0,0-5-5,5,5,0,0,0-5,5A75,75,0,0,0,0,150,75,75,0,0,0,75,75,75,75,0,0,0,0,0" transform="translate(299.999 2444)" fill="url(#linear-gradient)"/>
    <text id="_75_" data-name="75%" transform="translate(302 2532)" fill="#5d5d5d" font-size="34" font-family="SegoeUI-Bold, Segoe UI" font-weight="700"><tspan x="-34.299" y="0">75%</tspan></text>
  </g>
</svg>
