<svg xmlns="http://www.w3.org/2000/svg" xmlns:xlink="http://www.w3.org/1999/xlink" width="230" height="230" viewBox="0 0 230 230">
  <defs>
    <filter id="Path_69" x="0" y="0" width="230" height="230" filterUnits="userSpaceOnUse">
      <feOffset input="SourceAlpha"/>
      <feGaussianBlur stdDeviation="10" result="blur"/>
      <feFlood flood-color="#aaa" flood-opacity="0.161"/>
      <feComposite operator="in" in2="blur"/>
      <feComposite in="SourceGraphic"/>
    </filter>
    <filter id="Path_70" x="20" y="20" width="190" height="190" filterUnits="userSpaceOnUse">
      <feOffset input="SourceAlpha"/>
      <feGaussianBlur stdDeviation="10" result="blur-2"/>
      <feFlood flood-color="#aaa" flood-opacity="0.161"/>
      <feComposite operator="in" in2="blur-2"/>
      <feComposite in="SourceGraphic"/>
    </filter>
    <linearGradient id="linear-gradient" x1="0.827" y1="0.11" x2="0.173" y2="0.893" gradientUnits="objectBoundingBox">
      <stop offset="0" stop-color="#ff8359"/>
      <stop offset="1" stop-color="#ffdf40"/>
    </linearGradient>
  </defs>
  <g id="skill-item-3" transform="translate(-1185 -2404)">
    <g transform="matrix(1, 0, 0, 1, 1185, 2404)" filter="url(#Path_69)">
      <path id="Path_69-2" data-name="Path 69" d="M0,0A75,75,0,0,1-75-75a75.092,75.092,0,0,1,3.42-22.47A75.048,75.048,0,0,1,0-150,75,75,0,0,1,75-75,75,75,0,0,1,0,0M0-160a85.049,85.049,0,0,0-81.12,59.54A84.982,84.982,0,0,0-85-75,85.006,85.006,0,0,0,0,10,85.005,85.005,0,0,0,85-75,85.005,85.005,0,0,0,0-160" transform="translate(115 190)" fill="#fff"/>
    </g>
    <g transform="matrix(1, 0, 0, 1, 1185, 2404)" filter="url(#Path_70)">
      <path id="Path_70-2" data-name="Path 70" d="M0,0A65,65,0,0,1-65,65,65,65,0,0,1-130,0a64.921,64.921,0,0,1,2.97-19.47A65.013,65.013,0,0,1-65-65,65,65,0,0,1,0,0" transform="translate(180 115)" fill="#fff"/>
    </g>
    <g id="Group_67" data-name="Group 67" transform="translate(1300 2444)">
      <path id="Path_71" data-name="Path 71" d="M0,0A5,5,0,0,0-5,5a5,5,0,0,0,5,5H0A65,65,0,0,1,65,75,65,65,0,0,1,0,140,65,65,0,0,1-65,75a64.933,64.933,0,0,1,2.836-19.015A4.956,4.956,0,0,0-61.75,54a5,5,0,0,0-5-5,4.985,4.985,0,0,0-4.762,3.551l-.068-.021A75.092,75.092,0,0,0-75,75,75,75,0,0,0,0,150,75,75,0,0,0,75,75,75,75,0,0,0,0,0" fill="url(#linear-gradient)"/>
    </g>
    <text id="_85_" data-name="85%" transform="translate(1302.001 2532)" fill="#5d5d5d" font-size="34" font-family="SegoeUI-Bold, Segoe UI" font-weight="700"><tspan x="-34.299" y="0">85%</tspan></text>
  </g>
</svg>
