<svg xmlns="http://www.w3.org/2000/svg" xmlns:xlink="http://www.w3.org/1999/xlink" width="230" height="230" viewBox="0 0 230 230">
  <defs>
    <filter id="Path_61" x="0" y="0" width="230" height="230" filterUnits="userSpaceOnUse">
      <feOffset input="SourceAlpha"/>
      <feGaussianBlur stdDeviation="10" result="blur"/>
      <feFlood flood-color="#aaa" flood-opacity="0.161"/>
      <feComposite operator="in" in2="blur"/>
      <feComposite in="SourceGraphic"/>
    </filter>
    <filter id="Path_62" x="20.001" y="20" width="190" height="190" filterUnits="userSpaceOnUse">
      <feOffset input="SourceAlpha"/>
      <feGaussianBlur stdDeviation="10" result="blur-2"/>
      <feFlood flood-color="#aaa" flood-opacity="0.161"/>
      <feComposite operator="in" in2="blur-2"/>
      <feComposite in="SourceGraphic"/>
    </filter>
    <linearGradient id="linear-gradient" x1="0.835" y1="0.113" x2="0.196" y2="0.913" gradientUnits="objectBoundingBox">
      <stop offset="0" stop-color="#b122e5"/>
      <stop offset="1" stop-color="#ff63de"/>
    </linearGradient>
  </defs>
  <g id="skill-item-5" transform="translate(-435 -2404)">
    <g transform="matrix(1, 0, 0, 1, 435, 2404)" filter="url(#Path_61)">
      <path id="Path_61-2" data-name="Path 61" d="M0,0A75.037,75.037,0,0,1-73.469-59.84,75.607,75.607,0,0,1-75-75,75,75,0,0,1,0-150,75,75,0,0,1,75-75,75,75,0,0,1,0,0M0-160A85,85,0,0,0-85-75a85.25,85.25,0,0,0,1.74,17.17A85.02,85.02,0,0,0,0,10,85,85,0,0,0,85-75,85,85,0,0,0,0-160" transform="translate(115 190)" fill="#fff"/>
    </g>
    <g id="Group_41" data-name="Group 41" transform="translate(615.001 2519)">
      <g transform="matrix(1, 0, 0, 1, -180, -115)" filter="url(#Path_62)">
        <path id="Path_62-2" data-name="Path 62" d="M0,0A65,65,0,0,1-65,65a65.012,65.012,0,0,1-63.67-51.87A65.334,65.334,0,0,1-130,0,65,65,0,0,1-65-65,65,65,0,0,1,0,0" transform="translate(180 115)" fill="#fff"/>
      </g>
    </g>
    <g id="Group_42" data-name="Group 42" transform="translate(550 2444)">
      <path id="Path_63" data-name="Path 63" d="M0,0A5,5,0,0,0-5,5a5,5,0,0,0,5,5H0A65,65,0,0,1,65,75,65,65,0,0,1,0,140,65.012,65.012,0,0,1-63.67,88.13h-.008a5,5,0,0,0-4.9-3.985,5,5,0,0,0-5,5,5.06,5.06,0,0,0,.11,1.037A75.036,75.036,0,0,0,0,150,75,75,0,0,0,75,75,75,75,0,0,0,0,0" fill="url(#linear-gradient)"/>
    </g>
    <text id="_70_" data-name="70%" transform="translate(552.001 2532)" fill="#5d5d5d" font-size="34" font-family="SegoeUI-Bold, Segoe UI" font-weight="700"><tspan x="-34.299" y="0">70%</tspan></text>
  </g>
</svg>
